Coordinates
version=1
nRows=17
nColumns=36
inDegrees=yes

Units are S.I. units (second, meters, Newtons, ...)
If the header above contains a line with 'inDegrees', this indicates whether rotational values are in degrees (yes) or radians (no).

endheader
time	pelvis_tilt	pelvis_list	pelvis_rotation	pelvis_tx	pelvis_ty	pelvis_tz	hip_flexion_r	hip_adduction_r	hip_rotation_r	knee_angle_r	knee_angle_r_beta	ankle_angle_r	subtalar_angle_r	mtp_angle_r	hip_flexion_l	hip_adduction_l	hip_rotation_l	knee_angle_l	knee_angle_l_beta	ankle_angle_l	subtalar_angle_l	mtp_angle_l	lumbar_extension	lumbar_bending	lumbar_rotation	arm_flex_r	arm_add_r	arm_rot_r	elbow_flex_r	pro_sup_r	arm_flex_l	arm_add_l	arm_rot_l	elbow_flex_l	pro_sup_l
      0.00000000	     -3.82041896	     -0.85026471	      3.40884836	     -0.22534425	      0.72221796	      0.10303190	     65.73576601	    -12.29099794	     -7.98153673	     23.59121748	      0.41174442	     -8.55354344	     -5.60548229	     -9.32637728	     66.73433629	      4.04010013	     -5.26964804	     93.07870461	      1.62452986	     37.22375404	     -0.54838009	     -9.32637728	    -37.53328441	     -8.19739317	      3.63928893	     64.30923613	     10.36768797	     64.55474710	    116.05380642	     98.08521870	     71.06201766	      1.27774092	     69.74925888	    121.25517221	     90.83618501
      0.01666670	    -10.40041054	     -1.30532116	      2.09907025	     -0.22106173	      0.71891826	      0.10497290	     66.42798037	     -9.19560404	     -6.64568602	     14.29870258	      0.24955944	     -3.95441826	     -2.08454245	     -9.00099252	     66.43923153	      2.47935179	     -4.88275768	     86.10724045	      1.50285486	     29.38246997	     -3.82112172	     -9.00099252	    -31.83368950	     -9.65451297	      4.08162502	     62.00835696	      8.97496355	     68.86814398	    116.62857087	    104.54980190	     71.20110276	     -0.00786481	     75.10142704	    123.20337008	     94.52537016
      0.03333330	    -13.20371383	     -1.76297238	      3.80514844	     -0.22330455	      0.71712086	      0.10500041	     67.13073813	    -10.05993541	     -7.17151963	     11.50194772	      0.20074686	     -5.05237861	     -1.63809742	     -9.01605744	     67.66284434	      4.20603638	     -3.47962741	     84.05228185	      1.46698906	     25.91502892	     -3.83480737	     -9.01605744	    -30.30233576	     -9.32175766	      2.87525367	     61.21787385	      8.35609246	     70.29541641	    117.63907385	    105.59162418	     72.88412019	     -0.16942736	     77.20972981	    124.60963623	     95.01474833
      0.05000000	    -13.75416213	     -2.52880835	      5.15773149	     -0.22425694	      0.71647465	      0.10487765	     67.08660915	    -10.40617779	     -7.15468493	     10.53515857	      0.18387320	     -6.64231102	     -2.93128792	     -8.83212552	     69.24063515	      5.08572614	     -2.45647047	     85.29091163	      1.48860723	     26.05262680	     -3.51168688	     -8.83212552	    -30.58248319	     -8.75759393	      2.44901389	     62.00173318	      7.45891196	     70.95609501	    118.25965421	    104.43803007	     74.40242178	      0.67137823	     78.39470742	    123.90332528	     92.29929022
      0.06666670	    -13.47184698	     -3.36256956	      6.07319046	     -0.22534391	      0.71702229	      0.10484400	     66.47141974	    -10.40100786	     -6.49537802	     10.49471515	      0.18316733	     -7.44669235	     -6.06504629	     -8.58649499	     69.82954284	      5.57615194	     -1.17748644	     86.00929296	      1.50114535	     25.52773941	     -3.75725728	     -8.58649499	    -31.24809622	     -7.47739336	      2.20780420	     62.85820027	      7.13292808	     71.42766344	    118.16467731	    102.77729429	     75.02399229	      1.03528643	     78.51604617	    123.64699864	     88.20080463
      0.08333330	    -13.39988025	     -4.20985294	      6.61691579	     -0.22691438	      0.71846845	      0.10537605	     66.24730651	    -10.30722788	     -6.31323425	     10.95178836	      0.19114477	     -7.02985910	     -7.78801830	     -8.52873158	     70.53789483	      5.59389295	     -0.07324736	     86.74831480	      1.51404371	     25.08514340	     -3.39193514	     -8.52873158	    -31.54525153	     -6.47160540	      2.11150600	     63.50252235	      6.99197809	     71.77240303	    118.33586122	    101.64695047	     75.68230675	      1.46574044	     78.41545458	    123.36250874	     87.20073319
      0.10000000	    -13.03205403	     -4.78698939	      7.04011422	     -0.22659818	      0.72015081	      0.10564699	     65.72411347	    -10.20990535	     -5.75707009	     11.29454759	      0.19712704	     -7.17092993	     -9.91304854	     -8.41777535	     70.46091096	      5.60161073	      0.75510996	     86.82834144	      1.51544044	     24.41432363	     -3.04339062	     -8.41777535	    -31.89180517	     -5.71452412	      2.13958968	     64.29343214	      7.04579865	     71.89455639	    118.29784765	     99.69908944	     76.26089243	      1.72049019	     78.26789136	    123.26017549	     85.31347553
      0.11666670	    -12.73946849	     -5.21674269	      7.67835963	     -0.22552771	      0.72415057	      0.10585084	     64.76344198	    -10.34107816	     -5.57242845	     10.59752748	      0.18496175	     -8.54498588	    -11.68929936	     -8.34091769	     69.79792614	      5.73239312	      1.52974627	     86.21769322	      1.50478262	     23.78073684	     -2.65858172	     -8.34091769	    -32.18550301	     -5.09362594	      2.06511018	     64.62023939	      7.05705519	     71.58502559	    118.38694359	     98.22109400	     76.63289484	      1.91848267	     78.08945899	    123.19958148	     84.26462950
      0.13333330	    -12.47771001	     -5.53447490	      8.06121399	     -0.22556944	      0.72544774	      0.10639585	     64.11871891	    -10.34090237	     -5.70586191	     10.17543196	      0.17759479	     -9.17122466	    -12.57901265	     -8.28765852	     69.27096356	      5.75160813	      2.05953971	     85.78065668	      1.49715489	     23.03535498	     -2.64311545	     -8.28765852	    -32.31846350	     -4.68062071	      2.02303135	     64.86898081	      7.21243669	     71.31695027	    118.70602922	     97.10129553	     76.92844831	      1.97609847	     77.72923228	    123.29314940	     83.65655859
      0.15000000	    -12.38273483	     -5.82115217	      8.46768827	     -0.22490792	      0.72695192	      0.10681327	     63.59681653	    -10.37917720	     -5.96130639	      9.68297227	      0.16899975	     -8.83299106	    -12.58994741	     -8.20565612	     68.93525317	      5.96835115	      2.59094366	     85.36957514	      1.48998017	     22.59873501	     -2.70665090	     -8.20565612	    -32.19394733	     -4.24701320	      1.92455647	     64.97416922	      7.37971090	     71.15802335	    118.98689591	     95.62428650	     76.97268253	      1.88540369	     77.35860977	    123.54143876	     81.86201125
      0.16666670	    -12.38691318	     -5.80516577	      8.68999109	     -0.22386913	      0.72874442	      0.10728402	     63.33935204	    -10.40028051	     -6.30922738	      9.18332624	      0.16027928	     -8.69478504	    -12.56697258	     -8.16335211	     68.60992147	      6.15997702	      2.73817820	     84.99708596	      1.48347900	     22.15756925	     -2.73538737	     -8.16335211	    -31.88293879	     -4.08838855	      1.97188971	     65.02203775	      7.52449298	     71.13057019	    119.43579408	     94.71618682	     76.93892504	      1.90450074	     77.24500094	    123.77151441	     81.34939614
      0.18333330	    -12.32636999	     -5.82708089	      8.79650575	     -0.22187910	      0.73240295	      0.10686160	     63.07102871	    -10.35481419	     -6.66446329	      8.94292354	      0.15608346	     -8.39061511	    -12.09249700	     -8.08173552	     67.90029997	      6.43020238	      3.07232302	     84.48140508	      1.47447868	     22.40775148	     -2.46828612	     -8.08173552	    -31.56279547	     -3.88832415	      1.85875219	     64.91499301	      7.78940163	     71.41246698	    119.79699254	     93.09123553	     76.59310347	      1.80196680	     76.93068068	    123.95856273	     80.01938291
      0.20000000	    -12.19030369	     -5.69540060	      8.87517850	     -0.22041299	      0.73608098	      0.10674190	     62.80771016	    -10.37958106	     -7.03140076	      8.96508112	      0.15647018	     -8.05319912	    -11.45821344	     -7.99275111	     67.01844154	      6.73539317	      3.35808483	     83.69889014	      1.46082121	     22.86649429	     -2.14354966	     -7.99275111	    -31.12751478	     -3.75841056	      1.74972522	     64.60698195	      8.00935882	     71.70447323	    120.01620007	     90.92221759	     75.94767727	      1.76939602	     76.74332929	    124.04287597	     78.32238544
      0.21666670	    -12.03191491	     -5.68154230	      8.60654367	     -0.21749592	      0.74064358	      0.10685686	     62.50549663	    -10.00816542	     -6.71486152	      9.26888537	      0.16177257	     -8.18743659	    -12.14479144	     -7.87236136	     65.98783293	      6.64391472	      3.66755290	     82.96765462	      1.44805875	     23.72463752	     -1.24657220	     -7.87236136	    -30.65412264	     -3.64039664	      2.00464513	     64.23574013	      8.13573517	     71.96746746	    120.13609596	     96.65597481	     75.15369547	      1.71386952	     76.41488289	    124.14109667	     83.61521212
      0.23333330	    -11.77339638	     -5.41183442	      8.29868025	     -0.21599519	      0.74488828	      0.10738853	     62.40083067	     -9.82876370	     -6.85844426	      9.63900496	      0.16823237	     -8.11925301	    -12.01092368	     -7.84239609	     64.90589071	      6.69913585	      3.82385906	     82.10255938	      1.43295999	     24.02814865	     -0.95027842	     -7.84239609	    -30.19111296	     -3.73022965	      2.10006324	     63.80362012	      8.26259356	     72.13927356	    120.23478380	     95.57410046	     74.58369145	      1.58643270	     76.25483980	    124.28997307	     82.43603127
      0.25000000	    -11.69100241	     -5.34920040	      7.91870877	     -0.21355851	      0.75065312	      0.10697366	     62.38441833	     -9.51315376	     -6.68397319	     10.01494024	      0.17479368	     -8.17635175	    -11.96022245	     -7.84148965	     63.96456515	      6.77021497	      4.32257749	     81.17080904	      1.41669787	     24.03243346	     -0.78924022	     -7.84148965	    -29.58825729	     -3.64954305	      2.29901291	     63.49565211	      8.46023094	     72.38515521	    120.37837739	     95.59761152	     74.33349976	      1.52757035	     76.36160988	    124.39356096	     82.46019775
      0.26666670	    -11.37570402	     -4.78129990	      7.68639226	     -0.21227667	      0.75470787	      0.10800526	     62.31638196	     -9.52327256	     -6.07493039	     10.54055345	      0.18396736	     -7.53877673	    -11.59451449	     -7.81137281	     62.80495755	      7.08795676	      4.28317995	     79.88538341	      1.39426296	     23.96079976	     -0.77760210	     -7.81137281	    -29.10017820	     -4.04388990	      2.14949467	     62.89857863	      8.69388968	     72.91024908	    120.42897316	     94.50016265	     73.84038991	      1.15107321	     76.37023971	    124.86989892	     81.74198171
